<svg width="512" height="384" viewBox="0 0 512 384" fill="none" xmlns="http://www.w3.org/2000/svg">
<path d="M319.564 196.312L348.644 167.232C350.76 175.148 352 183.424 352 192C352 244.936 308.936 288 256 288C247.424 288 239.148 286.76 231.232 284.644L260.312 255.564C292.108 253.396 317.396 228.108 319.564 196.312ZM509.984 184.228C508.016 180.688 480.104 131.78 425.544 90.332L402.26 113.616C442.044 142.868 467.252 176.984 477.176 192.024C458.212 220.9 383.82 320 256 320C236.832 320 219.008 317.548 202.236 313.636L175.944 339.928C200.116 347.34 226.684 352 256 352C423.492 352 506.532 205.984 509.984 199.772C512.672 194.936 512.672 189.064 509.984 184.228ZM443.312 27.312L91.312 379.312C88.188 382.436 84.092 384 80 384C75.908 384 71.812 382.436 68.688 379.312C62.436 373.06 62.436 362.936 68.688 356.688L113.472 311.904C41.072 268.196 4.284 203.856 2.016 199.772C-0.672 194.936 -0.672 189.06 2.016 184.224C5.468 178.016 88.508 32 256 32C299.308 32 336.82 41.88 368.888 56.488L420.688 4.68802C426.94 -1.56398 437.064 -1.56398 443.312 4.68802C449.56 10.94 449.564 21.064 443.312 27.312ZM137.332 288.044L177.84 247.536C166.652 231.84 160 212.7 160 192C160 139.064 203.064 96 256 96C276.7 96 295.84 102.652 311.536 113.836L344.292 81.08C318.412 70.716 289.004 64 256 64C128.18 64 53.788 163.1 34.828 191.976C46.868 210.224 81.476 256.416 137.332 288.044ZM201.068 224.304L288.304 137.068C278.788 131.448 267.832 128 256 128C220.712 128 192 156.712 192 192C192 203.832 195.448 214.788 201.068 224.304Z" fill="#BDBDBD"/>
</svg>
